<svg width="17" height="17" viewBox="0 0 17 17" fill="none" xmlns="http://www.w3.org/2000/svg">
<path d="M5.16667 1.57692L16 1.57782ZM5.16667 8.5L16 8.50092ZM5.16667 15.4231L16 15.4239ZM1 2.15385H1.83333V1H1V2.15385ZM1 9.07692H1.83333V7.92308H1V9.07692ZM1 16H1.83333V14.8462H1V16Z" fill="#BCA37F"/>
<path d="M5.16667 1.57692L16 1.57782M5.16667 8.5L16 8.50092M5.16667 15.4231L16 15.4239M1 2.15385H1.83333V1H1V2.15385ZM1 9.07692H1.83333V7.92308H1V9.07692ZM1 16H1.83333V14.8462H1V16Z" stroke="black" stroke-width="2" stroke-linecap="round" stroke-linejoin="round"/>
</svg>
