<svg width="17" height="17" viewBox="0 0 17 17" fill="none" xmlns="http://www.w3.org/2000/svg">
<path d="M1 5.6875H16ZM1 11.3125H16ZM6 5.6875V16ZM11 5.6875V16ZM3.66667 16H13.3333C14.2667 16 14.7335 16 15.09 15.7956C15.4036 15.6159 15.6586 15.329 15.8183 14.9763C16 14.5752 16 14.0501 16 13V4C16 2.94991 16 2.42485 15.8183 2.02377C15.6586 1.67096 15.4036 1.38412 15.09 1.20437C14.7335 1 14.2667 1 13.3333 1H3.66667C2.73325 1 2.26653 1 1.91002 1.20437C1.59641 1.38412 1.34144 1.67096 1.18166 2.02377C1 2.42485 1 2.9499 1 4V13C1 14.0501 1 14.5752 1.18166 14.9763C1.34144 15.329 1.59641 15.6159 1.91002 15.7956C2.26653 16 2.73324 16 3.66667 16Z" fill="#BCA37F"/>
<path d="M1 5.6875H16M1 11.3125H16M6 5.6875V16M11 5.6875V16M3.66667 16H13.3333C14.2667 16 14.7335 16 15.09 15.7956C15.4036 15.6159 15.6586 15.329 15.8183 14.9763C16 14.5752 16 14.0501 16 13V4C16 2.94991 16 2.42485 15.8183 2.02377C15.6586 1.67096 15.4036 1.38412 15.09 1.20437C14.7335 1 14.2667 1 13.3333 1H3.66667C2.73325 1 2.26653 1 1.91002 1.20437C1.59641 1.38412 1.34144 1.67096 1.18166 2.02377C1 2.42485 1 2.9499 1 4V13C1 14.0501 1 14.5752 1.18166 14.9763C1.34144 15.329 1.59641 15.6159 1.91002 15.7956C2.26653 16 2.73324 16 3.66667 16Z" stroke="black" stroke-width="2" stroke-linecap="round" stroke-linejoin="round"/>
</svg>
