<svg width="128" height="128" viewBox="0 0 128 128" fill="none" xmlns="http://www.w3.org/2000/svg">
<path d="M17.3333 94V124M24 4V34M30.6667 109H4M37.3333 19H10.6667M70.6667 4L82.352 37.3328C83.6047 40.9062 84.2313 42.6929 85.1907 44.1995C86.0407 45.535 87.08 46.7043 88.2673 47.6607C89.606 48.7398 91.1947 49.4448 94.3707 50.854L124 64L94.3707 77.146C91.1947 78.5552 89.606 79.2603 88.2673 80.3395C87.08 81.2958 86.0407 82.465 85.1907 83.8007C84.2313 85.3067 83.6047 87.094 82.352 90.667L70.6667 124L58.9813 90.667C57.7287 87.094 57.102 85.3067 56.1427 83.8007C55.2927 82.465 54.2533 81.2958 53.066 80.3395C51.7273 79.2603 50.1389 78.5552 46.9625 77.146L17.3333 64L46.9625 50.854C50.1389 49.4448 51.7273 48.7398 53.066 47.6607C54.2533 46.7043 55.2927 45.535 56.1427 44.1995C57.102 42.6929 57.7287 40.9062 58.9813 37.3328L70.6667 4Z" stroke="white" stroke-width="7" stroke-linecap="round" stroke-linejoin="round"/>
</svg>
