<svg width="128" height="128" viewBox="0 0 128 128" fill="none" xmlns="http://www.w3.org/2000/svg">
<path d="M49.6169 124H24.8534C17.5541 124 13.9043 124 11.1164 122.547C8.66394 121.269 6.67009 119.229 5.42058 116.72C4 113.868 4 110.134 4 102.667V38.6667C4 31.1993 4 27.4656 5.42058 24.6135C6.67009 22.1046 8.66394 20.0649 11.1164 18.7866C13.9043 17.3333 17.5541 17.3333 24.8534 17.3333H100.447C107.747 17.3333 111.397 17.3333 114.184 18.7866C116.637 20.0649 118.631 22.1046 119.88 24.6135C121.301 27.4656 121.301 31.1993 121.301 38.6667V50.6667M30.0668 4V17.3333M95.2338 4V17.3333M4 44H121.301M72.4254 70.6673L30.0668 70.6667M49.6169 97.334L30.0668 97.3333M75.6837 124L88.88 121.3C90.0302 121.065 90.6057 120.947 91.142 120.731C91.6184 120.541 92.0713 120.293 92.4903 119.993C92.9634 119.656 93.3779 119.232 94.2081 118.383L121.301 90.6667C124.9 86.9847 124.9 81.0153 121.301 77.3333C117.701 73.6513 111.866 73.6513 108.267 77.3333L81.1747 105.049C80.3445 105.899 79.93 106.323 79.6002 106.807C79.3076 107.235 79.0652 107.699 78.8789 108.186C78.6684 108.735 78.553 109.323 78.323 110.5L75.6837 124Z" stroke="white" stroke-width="7" stroke-linecap="round" stroke-linejoin="round"/>
</svg>
