<svg width="128" height="128" viewBox="0 0 128 128" fill="none" xmlns="http://www.w3.org/2000/svg">
<path d="M124 124L111.008 111.008M111.008 111.008C114.401 107.615 116.5 102.928 116.5 97.75C116.5 87.3948 108.105 79 97.75 79C87.3948 79 79 87.3948 79 97.75C79 108.105 87.3948 116.5 97.75 116.5C102.928 116.5 107.615 114.401 111.008 111.008ZM91 49H112C116.201 49 118.301 49 119.905 48.1826C121.317 47.4635 122.463 46.3161 123.183 44.9049C124 43.3006 124 41.2004 124 37V16C124 11.7996 124 9.6994 123.183 8.09508C122.463 6.68388 121.317 5.53653 119.905 4.81743C118.301 4 116.201 4 112 4H91C86.7993 4 84.6992 4 83.095 4.81743C81.6835 5.53653 80.5368 6.68388 79.8175 8.09508C79 9.6994 79 11.7996 79 16V37C79 41.2004 79 43.3006 79.8175 44.9049C80.5368 46.3161 81.6835 47.4635 83.095 48.1826C84.6992 49 86.7993 49 91 49ZM16 49H37C41.2004 49 43.3006 49 44.9049 48.1826C46.3161 47.4635 47.4635 46.3161 48.1826 44.9049C49 43.3006 49 41.2004 49 37V16C49 11.7996 49 9.6994 48.1826 8.09508C47.4635 6.68388 46.3161 5.53653 44.9049 4.81743C43.3006 4 41.2004 4 37 4H16C11.7996 4 9.6994 4 8.09508 4.81743C6.68388 5.53653 5.53653 6.68388 4.81743 8.09508C4 9.6994 4 11.7996 4 16V37C4 41.2004 4 43.3006 4.81743 44.9049C5.53653 46.3161 6.68388 47.4635 8.09508 48.1826C9.6994 49 11.7996 49 16 49ZM16 124H37C41.2004 124 43.3006 124 44.9049 123.183C46.3161 122.463 47.4635 121.317 48.1826 119.905C49 118.301 49 116.201 49 112V91C49 86.7993 49 84.6992 48.1826 83.095C47.4635 81.6835 46.3161 80.5368 44.9049 79.8175C43.3006 79 41.2004 79 37 79H16C11.7996 79 9.6994 79 8.09508 79.8175C6.68388 80.5368 5.53653 81.6835 4.81743 83.095C4 84.6992 4 86.7993 4 91V112C4 116.201 4 118.301 4.81743 119.905C5.53653 121.317 6.68388 122.463 8.09508 123.183C9.6994 124 11.7996 124 16 124Z" stroke="white" stroke-width="7" stroke-linecap="round" stroke-linejoin="round"/>
</svg>
